<svg id="White_Logo" data-name="White Logo" xmlns="http://www.w3.org/2000/svg" width="100.182" height="66.972" viewBox="0 0 100.182 66.972">
  <g id="Group_4" data-name="Group 4" transform="translate(6.792)">
    <g id="Group_1" data-name="Group 1" transform="translate(61.763 6.261)">
      <path id="Path_1" data-name="Path 1" d="M149.693,37.893a3.868,3.868,0,0,0-.1.751.531.531,0,0,0,1.052.15,3.865,3.865,0,0,0,.1-.751v-.2a.425.425,0,0,0-.4-.351.546.546,0,0,0-.651.4Z" transform="translate(-143.21 -24.969)" fill="#fff"/>
      <path id="Path_2" data-name="Path 2" d="M145.6,15.605c-.551,1.052-1.2,3.657-1.954,8.015a.511.511,0,1,0,1,.2c.9-5.209,1.5-7.063,1.853-7.714a5.152,5.152,0,0,1,3.056-2.454,5.251,5.251,0,0,1,1.753-.2c-.15.1-.25.15-.4.25a10.1,10.1,0,0,0-2.805,3.256c-1.152,2.154-3.857,10.319-5.159,14.326l-.551-.3a.507.507,0,0,0-.7.2L136.93,39.9a.507.507,0,0,0,.2.7l2.7,1.5a.532.532,0,0,0,.4.05.513.513,0,0,0,.3-.25l4.759-8.716a.532.532,0,0,0,.05-.4.513.513,0,0,0-.25-.3l-.15-.05c4.007-3.356,10.269-8.816,11.371-10.87a6.062,6.062,0,0,0,.5-4.658,5.984,5.984,0,0,0-2.955-3.657,6.062,6.062,0,0,0-4.658-.5,5.738,5.738,0,0,0-3.607,2.855Zm-1.453,17.532-4.308,7.814-1.8-1,4.308-7.814Zm11.721-15.979a4.868,4.868,0,0,1-.451,3.907c-.651,1.2-3.857,4.308-8.766,8.515a98.069,98.069,0,0,0,7.163-9.417,9.886,9.886,0,0,0,1.252-4.107v-.5a4.387,4.387,0,0,1,.8,1.6ZM152.909,14l-6.362,11.621a.516.516,0,1,0,.9.5L153.81,14.5a3.285,3.285,0,0,1,.3,1.553,8.579,8.579,0,0,1-1.152,3.657c-1.052,1.954-6.211,8.265-8.916,11.571C145.4,27.176,147.95,19.512,149,17.559a9.2,9.2,0,0,1,2.454-2.955,2.643,2.643,0,0,1,1.453-.6Z" transform="translate(-136.859 -12.499)" fill="#fff"/>
    </g>
    <g id="Group_2" data-name="Group 2" transform="translate(28.172)">
      <path id="Path_3" data-name="Path 3" d="M77.5,47.913,75.95,49.466a.545.545,0,0,0,0,.751.609.609,0,0,0,.8,0L78.3,48.664a.545.545,0,0,0,0-.751.521.521,0,0,0-.8,0Z" transform="translate(-72.795 -23.819)" fill="#fff"/>
      <path id="Path_4" data-name="Path 4" d="M88.885,15.378a.569.569,0,0,0-.4-.15.537.537,0,0,0-.3.1l-1.7-1.7.551-.551,1.1,1.1a.609.609,0,0,0,.8,0L99.254,3.857a.545.545,0,0,0,0-.751L96.3.15a.609.609,0,0,0-.8,0L85.178,10.469a.545.545,0,0,0,0,.751l1.1,1.1-.551.551-.751-.751a.609.609,0,0,0-.8,0l-.751.751-.551-.551,1.1-1.1a.545.545,0,0,0,0-.751L73.707.15a.609.609,0,0,0-.8,0L69.95,3.106a.545.545,0,0,0,0,.751L80.269,14.176a.609.609,0,0,0,.8,0l1.1-1.1.551.551-1.7,1.7a.712.712,0,0,0-.3-.1.569.569,0,0,0-.4.15L69.95,25.7a.545.545,0,0,0,0,.751L72.906,29.4a.609.609,0,0,0,.8,0l5.51-5.51-.351,9.367H77.213a.551.551,0,1,0,0,1.1H91.94a.551.551,0,1,0,0-1.1H90.287l-.351-9.367,5.51,5.51a.609.609,0,0,0,.8,0L99.2,26.448a.545.545,0,0,0,0-.751ZM96.2,3.206a.545.545,0,0,0-.751,0l-8.365,8.365-.7-.7L95.9,1.352l2.2,2.2-9.517,9.517-.7-.7,8.365-8.365a.675.675,0,0,0-.05-.8Zm-23.242.751,8.365,8.365-.7.7L71.1,3.506l2.2-2.2,9.517,9.517-.7.7L73.757,3.206a.545.545,0,0,0-.751,0,.5.5,0,0,0-.05.751ZM95.847,28.251,86.33,18.734l.7-.7L95.4,26.4a.609.609,0,0,0,.8,0,.545.545,0,0,0,0-.751l-8.365-8.365.7-.7L98.051,26.1ZM85.128,33.26V30.505a.551.551,0,0,0-1.1,0V33.26H79.968l.4-10.519,3.657-3.657a.545.545,0,0,0,0-.751l-1.1-1.1,1.7-1.7,1.7,1.7-1.1,1.1a.545.545,0,0,0,0,.751l3.657,3.657.4,10.519ZM71.1,26.047,80.62,16.53l.7.7-5.26,5.31a.545.545,0,0,0,0,.751.609.609,0,0,0,.8,0l5.26-5.26.7.7-9.517,9.517ZM87.031,16.48l-1.7-1.7.4-.4,1.7,1.7Zm-2.454-2.454-.4-.4.4-.4.4.4Zm-.751.751-1.7,1.7-.4-.4,1.7-1.7Z" transform="translate(-69.8)" fill="#fff"/>
    </g>
    <g id="Group_3" data-name="Group 3" transform="translate(0 9.046)">
      <path id="Path_5" data-name="Path 5" d="M28.182,44.731l-.25-.4a.516.516,0,1,0-.9.5l.25.4c.05.15.2.2.3.25a.565.565,0,0,0,.4-.05.507.507,0,0,0,.2-.7Z" transform="translate(-20.247 -31.035)" fill="#fff"/>
      <path id="Path_6" data-name="Path 6" d="M38.074,43.075,23.748,18.33a.507.507,0,0,0-.7-.2l-9.217,5.36a.736.736,0,0,0-.25.3.565.565,0,0,0,.05.4l8.916,15.528a.736.736,0,0,0,.3.25.565.565,0,0,0,.4-.05l7.063-4.107.7,1.152a1.113,1.113,0,0,0-.4.651,1.235,1.235,0,0,0,.2.952c.451.651.8,1.152.9,1.352.25.4.5,1.052.8,1.653.3.7.6,1.3.852,1.753a5.515,5.515,0,0,0,.751,1,1.78,1.78,0,0,0,.8.551,1.535,1.535,0,0,0,1.152-.15l1.753-1a.431.431,0,0,0,.25-.651ZM23.247,38.767,14.832,24.141l.751-.451L19.49,30.4c.05.15.2.2.3.25a.565.565,0,0,0,.4-.05.507.507,0,0,0,.2-.7l-3.907-6.712L23.1,19.332l8.415,14.627Zm8.015-3.456.751-.451.651,1.152-.751.451Zm4.358,8.566a.533.533,0,0,1-.6-.1,10.625,10.625,0,0,1-.651-.9c-.25-.4-.5-1.052-.8-1.653-.3-.7-.6-1.3-.852-1.753-.15-.25-.5-.751-1-1.453a.184.184,0,0,1-.05-.15c0-.05,0-.05.1-.1l1.5-.852,3.657,6.211Z" transform="translate(-13.559 -18.059)" fill="#fff"/>
      <path id="Path_7" data-name="Path 7" d="M31.1,23.7a1.467,1.467,0,0,0-.8-.651,1.18,1.18,0,0,0-1,.15,1.467,1.467,0,0,0-.651.8,1.18,1.18,0,0,0,.15,1,1.33,1.33,0,0,0,.8.6,1.18,1.18,0,0,0,1-.15,1.244,1.244,0,0,0,.5-1.753Zm-1,.952a.262.262,0,0,1-.4-.1.375.375,0,0,1-.05-.25c0-.1.05-.15.15-.2a.262.262,0,0,1,.4.1.48.48,0,0,1-.1.451Z" transform="translate(-21.066 -20.525)" fill="#fff"/>
    </g>
  </g>
  <g id="Group_5" data-name="Group 5" transform="translate(16.724 63.108)">
    <path id="Path_8" data-name="Path 8" d="M66.6,129.851c-4.909,0-9.367-.15-13.124-.351a176.05,176.05,0,0,1-19.485-2.054.737.737,0,0,1,.25-1.453,192.361,192.361,0,0,0,19.335,2.054,216.478,216.478,0,0,0,44.982-2.054.737.737,0,0,1,.25,1.453A213.381,213.381,0,0,1,66.6,129.851Z" transform="translate(-33.387 -125.987)" fill="#fff"/>
  </g>
  <g id="Group_6" data-name="Group 6" transform="translate(0 39.672)">
    <path id="Path_9" data-name="Path 9" d="M8.666,88.356a3.158,3.158,0,0,1-2.054,3.306l2.7,3.807H6.362L4.007,92.063H2.4v3.406H0V84.8H4.057a5.878,5.878,0,0,1,3.556.852A3.234,3.234,0,0,1,8.666,88.356ZM5.811,89.609a1.593,1.593,0,0,0,.451-1.252,1.414,1.414,0,0,0-.451-1.2,3.112,3.112,0,0,0-1.6-.3H2.4v3.156H4.158A2.354,2.354,0,0,0,5.811,89.609Z" transform="translate(0 -81.995)" fill="#fff"/>
    <path id="Path_10" data-name="Path 10" d="M28.658,82.005a1.672,1.672,0,0,1-.451-1.152,1.451,1.451,0,0,1,.5-1.152,1.631,1.631,0,0,1,1.152-.5,1.451,1.451,0,0,1,1.152.5,1.631,1.631,0,0,1,.5,1.152,1.451,1.451,0,0,1-.5,1.152l4.608,10.669H33.066l-1-2.3H27.556l-1,2.3H24Zm1.152,3.206-1.352,3.106h2.655ZM29.26,80.3a.8.8,0,1,0,1.1,0,.858.858,0,0,0-1.1,0Z" transform="translate(-11.978 -79.2)" fill="#fff"/>
    <path id="Path_11" data-name="Path 11" d="M59.962,84.8h2.4V95.519h-2.4V91.312H55.7v4.208H53.3V84.8h2.4v4.458h4.258Z" transform="translate(-26.601 -81.995)" fill="#fff"/>
    <path id="Path_12" data-name="Path 12" d="M86.466,95.519l-1-2.3H80.956l-1,2.3H77.4L82.008,84.8h2.3l4.608,10.719Zm-3.206-7.514-1.352,3.106h2.655Z" transform="translate(-38.63 -81.995)" fill="#fff"/>
    <path id="Path_13" data-name="Path 13" d="M114.214,84.8h2.4V95.519h-2.4L109.1,88.807v6.712h-2.4V84.8h2.254l5.26,6.913Z" transform="translate(-53.253 -81.995)" fill="#fff"/>
    <path id="Path_14" data-name="Path 14" d="M143.465,86.2a5.163,5.163,0,0,1,1.553,3.907,5.247,5.247,0,0,1-1.5,3.957,6.38,6.38,0,0,1-4.558,1.453H135.3V84.8h3.757A6.135,6.135,0,0,1,143.465,86.2Zm-1.753,6.362a3.657,3.657,0,0,0,0-4.809,3.888,3.888,0,0,0-2.7-.852h-1.352v6.512h1.5A3.487,3.487,0,0,0,141.712,92.564Z" transform="translate(-67.527 -81.995)" fill="#fff"/>
    <path id="Path_15" data-name="Path 15" d="M170.164,84.8v2.1h-5.31v2.2h4.809v2.054h-4.809v2.2h5.51v2.1H162.5V84.8Z" transform="translate(-81.102 -81.995)" fill="#fff"/>
    <path id="Path_16" data-name="Path 16" d="M186.1,95.519V84.8h2.4v8.566h4.558v2.1l-6.963.05Z" transform="translate(-92.881 -81.995)" fill="#fff"/>
  </g>
</svg>
