<svg xmlns="http://www.w3.org/2000/svg" width="75" height="100" viewBox="0 0 75 100">
  <g id="Rectangle_18" data-name="Rectangle 18" fill="#fff" stroke="#707070" stroke-width="1">
    <rect width="75" height="100" stroke="none"/>
    <rect x="0.5" y="0.5" width="74" height="99" fill="none"/>
  </g>
  <g id="White_Logo" data-name="White Logo" transform="translate(7.038 29.636)">
    <g id="Group_4" data-name="Group 4" transform="translate(4.13)">
      <g id="Group_1" data-name="Group 1" transform="translate(37.56 3.807)">
        <path id="Path_1" data-name="Path 1" d="M149.65,37.733a2.352,2.352,0,0,0-.061.457.323.323,0,1,0,.64.091,2.351,2.351,0,0,0,.061-.457V37.7a.258.258,0,0,0-.244-.213.332.332,0,0,0-.4.244Z" transform="translate(-145.708 -29.873)" fill="#16639f"/>
        <path id="Path_2" data-name="Path 2" d="M142.172,14.388a21.47,21.47,0,0,0-1.188,4.874.311.311,0,1,0,.609.122,19.72,19.72,0,0,1,1.127-4.691,3.133,3.133,0,0,1,1.858-1.493,3.193,3.193,0,0,1,1.066-.122c-.091.061-.152.091-.244.152a6.14,6.14,0,0,0-1.706,1.98c-.7,1.31-2.346,6.275-3.138,8.712l-.335-.183a.308.308,0,0,0-.426.122l-2.894,5.3a.308.308,0,0,0,.122.426l1.645.914a.324.324,0,0,0,.244.03.312.312,0,0,0,.183-.152l2.894-5.3a.324.324,0,0,0,.03-.244.312.312,0,0,0-.152-.183l-.091-.03c2.437-2.041,6.245-5.361,6.915-6.61a3.687,3.687,0,0,0,.3-2.833,3.639,3.639,0,0,0-1.8-2.224,3.687,3.687,0,0,0-2.833-.3,3.49,3.49,0,0,0-2.193,1.736Zm-.883,10.662-2.62,4.752-1.1-.609,2.62-4.752Zm7.128-9.717a2.961,2.961,0,0,1-.274,2.376c-.4.731-2.346,2.62-5.331,5.179a59.638,59.638,0,0,0,4.356-5.727,6.012,6.012,0,0,0,.762-2.5v-.3a2.668,2.668,0,0,1,.487.975Zm-1.8-1.919-3.869,7.067a.314.314,0,1,0,.548.3l3.869-7.067a2,2,0,0,1,.183.944,5.217,5.217,0,0,1-.7,2.224,88.434,88.434,0,0,1-5.422,7.037c.822-2.5,2.376-7.159,3.016-8.347a5.6,5.6,0,0,1,1.493-1.8,1.608,1.608,0,0,1,.883-.366Z" transform="translate(-136.859 -12.499)" fill="#16639f"/>
      </g>
      <g id="Group_2" data-name="Group 2" transform="translate(17.132)">
        <path id="Path_3" data-name="Path 3" d="M76.836,47.839l-.944.944a.331.331,0,0,0,0,.457.371.371,0,0,0,.487,0l.944-.944a.331.331,0,0,0,0-.457.317.317,0,0,0-.487,0Z" transform="translate(-73.972 -33.187)" fill="#16639f"/>
        <path id="Path_4" data-name="Path 4" d="M81.406,9.352a.346.346,0,0,0-.244-.091.327.327,0,0,0-.183.061L79.944,8.286l.335-.335.67.67a.371.371,0,0,0,.487,0l6.275-6.275a.331.331,0,0,0,0-.457l-1.8-1.8a.371.371,0,0,0-.487,0L79.152,6.367a.331.331,0,0,0,0,.457l.67.67-.335.335-.457-.457a.371.371,0,0,0-.487,0l-.457.457-.335-.335.67-.67a.331.331,0,0,0,0-.457L72.176.091a.371.371,0,0,0-.487,0l-1.8,1.8a.331.331,0,0,0,0,.457l6.275,6.275a.371.371,0,0,0,.487,0l.67-.67.335.335L76.624,9.321a.433.433,0,0,0-.183-.061.346.346,0,0,0-.244.091l-6.306,6.275a.331.331,0,0,0,0,.457l1.8,1.8a.371.371,0,0,0,.487,0l3.351-3.351-.213,5.7H74.308a.335.335,0,1,0,0,.67h8.956a.335.335,0,1,0,0-.67H82.259l-.213-5.7L85.4,17.881a.371.371,0,0,0,.487,0l1.8-1.8a.331.331,0,0,0,0-.457Zm4.447-7.4a.331.331,0,0,0-.457,0L80.309,7.037l-.426-.426L85.671.822l1.34,1.34L81.223,7.951,80.8,7.524l5.087-5.087a.41.41,0,0,0-.03-.487Zm-14.134.457,5.087,5.087-.426.426L70.592,2.132l1.34-1.34L77.72,6.58l-.426.426L72.207,1.95a.331.331,0,0,0-.457,0,.307.307,0,0,0-.03.457ZM85.64,17.181l-5.788-5.788.426-.426,5.087,5.087a.371.371,0,0,0,.487,0,.331.331,0,0,0,0-.457l-5.087-5.087.426-.426,5.788,5.788Zm-6.519,3.046V18.551a.335.335,0,0,0-.67,0v1.675H75.984l.244-6.4,2.224-2.224a.331.331,0,0,0,0-.457l-.67-.67,1.036-1.036,1.036,1.036-.67.67a.331.331,0,0,0,0,.457l2.224,2.224.244,6.4ZM70.592,15.84l5.788-5.788.426.426-3.2,3.229a.331.331,0,0,0,0,.457.371.371,0,0,0,.487,0l3.2-3.2.426.426-5.788,5.788Zm9.687-5.818L79.243,8.986l.244-.244,1.036,1.036ZM78.786,8.529l-.244-.244.244-.244.244.244Zm-.457.457-1.036,1.036-.244-.244,1.036-1.036Z" transform="translate(-69.8)" fill="#16639f"/>
      </g>
      <g id="Group_3" data-name="Group 3" transform="translate(0 5.501)">
        <path id="Path_5" data-name="Path 5" d="M27.7,44.468l-.152-.244a.314.314,0,1,0-.548.3l.152.244c.03.091.122.122.183.152a.344.344,0,0,0,.244-.03.308.308,0,0,0,.122-.426Z" transform="translate(-22.877 -36.139)" fill="#16639f"/>
        <path id="Path_6" data-name="Path 6" d="M28.467,33.272,19.755,18.224a.308.308,0,0,0-.426-.122l-5.605,3.259a.448.448,0,0,0-.152.183.344.344,0,0,0,.03.244l5.422,9.443a.448.448,0,0,0,.183.152.344.344,0,0,0,.244-.03l4.3-2.5.426.7a.677.677,0,0,0-.244.4.751.751,0,0,0,.122.579c.274.4.487.7.548.822.152.244.3.64.487,1.005.183.426.366.792.518,1.066a3.354,3.354,0,0,0,.457.609,1.082,1.082,0,0,0,.487.335.933.933,0,0,0,.7-.091l1.066-.609a.262.262,0,0,0,.152-.4Zm-9.017-2.62-5.118-8.895.457-.274,2.376,4.082c.03.091.122.122.183.152a.344.344,0,0,0,.244-.03.308.308,0,0,0,.122-.426l-2.376-4.082,4.021-2.346,5.118,8.895Zm4.874-2.1.457-.274.4.7-.457.274Zm2.65,5.209a.324.324,0,0,1-.366-.061,6.462,6.462,0,0,1-.4-.548c-.152-.244-.3-.64-.487-1.005-.183-.426-.366-.792-.518-1.066-.091-.152-.3-.457-.609-.883a.112.112,0,0,1-.03-.091c0-.03,0-.03.061-.061l.914-.518L27.767,33.3Z" transform="translate(-13.559 -18.059)" fill="#16639f"/>
        <path id="Path_7" data-name="Path 7" d="M30.123,23.426a.892.892,0,0,0-.487-.4.718.718,0,0,0-.609.091.892.892,0,0,0-.4.487.718.718,0,0,0,.091.609.809.809,0,0,0,.487.366.718.718,0,0,0,.609-.091.757.757,0,0,0,.3-1.066Zm-.609.579a.16.16,0,0,1-.244-.061.228.228,0,0,1-.03-.152c0-.061.03-.091.091-.122a.16.16,0,0,1,.244.061.292.292,0,0,1-.061.274Z" transform="translate(-24.018 -21.495)" fill="#16639f"/>
      </g>
    </g>
    <g id="Group_5" data-name="Group 5" transform="translate(10.17 38.378)">
      <path id="Path_8" data-name="Path 8" d="M53.588,128.337c-2.985,0-5.7-.091-7.981-.213a107.063,107.063,0,0,1-11.85-1.249.448.448,0,1,1,.152-.883,116.986,116.986,0,0,0,11.758,1.249,131.649,131.649,0,0,0,27.355-1.249.448.448,0,0,1,.152.883A129.764,129.764,0,0,1,53.588,128.337Z" transform="translate(-33.387 -125.987)" fill="#16639f"/>
    </g>
    <g id="Group_6" data-name="Group 6" transform="translate(0 24.126)">
      <path id="Path_9" data-name="Path 9" d="M5.27,86.963a1.92,1.92,0,0,1-1.249,2.01l1.645,2.315h-1.8L2.437,89.217H1.462v2.071H0V84.8H2.467a3.574,3.574,0,0,1,2.163.518A1.967,1.967,0,0,1,5.27,86.963Zm-1.736.762a.969.969,0,0,0,.274-.762.86.86,0,0,0-.274-.731,1.893,1.893,0,0,0-.975-.183h-1.1v1.919H2.528A1.432,1.432,0,0,0,3.534,87.724Z" transform="translate(0 -83.094)" fill="#16639f"/>
      <path id="Path_10" data-name="Path 10" d="M26.833,80.906a1.017,1.017,0,0,1-.274-.7.882.882,0,0,1,.3-.7.992.992,0,0,1,.7-.3.882.882,0,0,1,.7.3.992.992,0,0,1,.3.7.882.882,0,0,1-.3.7l2.8,6.488H29.514l-.609-1.4H26.163l-.609,1.4H24Zm.7,1.95-.822,1.889h1.614ZM27.2,79.87a.488.488,0,1,0,.67,0,.522.522,0,0,0-.67,0Z" transform="translate(-16.689 -79.2)" fill="#16639f"/>
      <path id="Path_11" data-name="Path 11" d="M57.351,84.8h1.462v6.519H57.351V88.76H54.762v2.559H53.3V84.8h1.462v2.711h2.589Z" transform="translate(-37.064 -83.094)" fill="#16639f"/>
      <path id="Path_12" data-name="Path 12" d="M82.914,91.319l-.609-1.4H79.563l-.609,1.4H77.4L80.2,84.8h1.4l2.8,6.519Zm-1.95-4.569-.822,1.889h1.615Z" transform="translate(-53.822 -83.094)" fill="#16639f"/>
      <path id="Path_13" data-name="Path 13" d="M111.269,84.8h1.462v6.519h-1.462l-3.107-4.082v4.082H106.7V84.8h1.371l3.2,4.2Z" transform="translate(-74.197 -83.094)" fill="#16639f"/>
      <path id="Path_14" data-name="Path 14" d="M140.265,85.653a3.14,3.14,0,0,1,.944,2.376,3.191,3.191,0,0,1-.914,2.407,3.88,3.88,0,0,1-2.772.883H135.3V84.8h2.285A3.731,3.731,0,0,1,140.265,85.653ZM139.2,89.522a2.224,2.224,0,0,0,0-2.924,2.364,2.364,0,0,0-1.645-.518h-.822v3.96h.914A2.12,2.12,0,0,0,139.2,89.522Z" transform="translate(-94.085 -83.094)" fill="#16639f"/>
      <path id="Path_15" data-name="Path 15" d="M167.161,84.8v1.279h-3.229v1.34h2.924v1.249h-2.924v1.34h3.351v1.279H162.5V84.8Z" transform="translate(-112.999 -83.094)" fill="#16639f"/>
      <path id="Path_16" data-name="Path 16" d="M186.1,91.319V84.8h1.462v5.209h2.772v1.279l-4.234.03Z" transform="translate(-129.41 -83.094)" fill="#16639f"/>
    </g>
  </g>
</svg>
