<svg id="White_Logo" data-name="White Logo" xmlns="http://www.w3.org/2000/svg" width="135.627" height="90.667" viewBox="0 0 135.627 90.667">
  <g id="Group_4" data-name="Group 4" transform="translate(9.195)">
    <g id="Group_1" data-name="Group 1" transform="translate(83.614 8.476)">
      <path id="Path_1" data-name="Path 1" d="M149.731,38.038a5.235,5.235,0,0,0-.136,1.017.719.719,0,1,0,1.424.2,5.234,5.234,0,0,0,.136-1.017V37.97a.575.575,0,0,0-.543-.475.739.739,0,0,0-.882.543Z" transform="translate(-140.955 -20.541)" fill="#2a2a2a"/>
      <path id="Path_2" data-name="Path 2" d="M148.686,16.7c-.746,1.424-1.628,4.95-2.645,10.85a.692.692,0,1,0,1.356.271c1.221-7.053,2.034-9.562,2.509-10.443a6.975,6.975,0,0,1,4.137-3.323,7.109,7.109,0,0,1,2.373-.271c-.2.136-.339.2-.543.339a13.67,13.67,0,0,0-3.8,4.408c-1.56,2.916-5.222,13.97-6.985,19.395l-.746-.407a.686.686,0,0,0-.949.271l-6.442,11.8a.686.686,0,0,0,.271.949l3.662,2.034a.721.721,0,0,0,.542.068.694.694,0,0,0,.407-.339l6.442-11.8a.72.72,0,0,0,.068-.543.694.694,0,0,0-.339-.407l-.2-.068c5.425-4.544,13.9-11.935,15.394-14.716a8.207,8.207,0,0,0,.678-6.307,8.1,8.1,0,0,0-4-4.95,8.207,8.207,0,0,0-6.307-.678,7.768,7.768,0,0,0-4.883,3.865ZM146.72,40.439l-5.832,10.579-2.441-1.356,5.832-10.579Zm15.868-21.633a6.591,6.591,0,0,1-.61,5.289c-.882,1.628-5.222,5.832-11.867,11.528,3.8-4.611,8.544-10.579,9.7-12.749a13.383,13.383,0,0,0,1.7-5.561v-.678a5.939,5.939,0,0,1,1.085,2.17Zm-4-4.272-8.612,15.733a.7.7,0,1,0,1.221.678l8.612-15.733a4.448,4.448,0,0,1,.407,2.1,11.613,11.613,0,0,1-1.56,4.95c-1.424,2.645-8.409,11.189-12.071,15.665,1.831-5.561,5.289-15.936,6.714-18.581a12.46,12.46,0,0,1,3.323-4,3.579,3.579,0,0,1,1.967-.814Z" transform="translate(-136.859 -12.499)" fill="#2a2a2a"/>
    </g>
    <g id="Group_2" data-name="Group 2" transform="translate(38.139)">
      <path id="Path_3" data-name="Path 3" d="M78.106,47.979l-2.1,2.1A.737.737,0,0,0,76,51.1a.825.825,0,0,0,1.085,0l2.1-2.1a.737.737,0,0,0,0-1.017.706.706,0,0,0-1.085,0Z" transform="translate(-71.731 -15.361)" fill="#2a2a2a"/>
      <path id="Path_4" data-name="Path 4" d="M95.637,20.819a.77.77,0,0,0-.543-.2.727.727,0,0,0-.407.136l-2.306-2.306.746-.746,1.492,1.492a.825.825,0,0,0,1.085,0l13.97-13.97a.737.737,0,0,0,0-1.017l-4-4a.825.825,0,0,0-1.085,0l-13.97,13.97a.737.737,0,0,0,0,1.017l1.492,1.492-.746.746-1.017-1.017a.825.825,0,0,0-1.085,0l-1.017,1.017-.746-.746,1.492-1.492a.737.737,0,0,0,0-1.017L75.089.2A.825.825,0,0,0,74,.2l-4,4a.737.737,0,0,0,0,1.017l13.97,13.97a.825.825,0,0,0,1.085,0L86.55,17.7l.746.746L84.99,20.751a.964.964,0,0,0-.407-.136.77.77,0,0,0-.543.2L70,34.788a.737.737,0,0,0,0,1.017l4,4a.825.825,0,0,0,1.085,0l7.459-7.459-.475,12.681H79.836a.746.746,0,1,0,0,1.492H99.774a.746.746,0,1,0,0-1.492H97.536l-.475-12.681,7.459,7.459a.825.825,0,0,0,1.085,0l4-4a.737.737,0,0,0,0-1.017Zm9.9-16.479a.737.737,0,0,0-1.017,0L93.2,15.665l-.949-.949L105.131,1.831l2.984,2.984L95.23,17.7l-.949-.949L105.606,5.425a.913.913,0,0,0-.068-1.085ZM74.072,5.357,85.4,16.682l-.949.949L71.563,4.747l2.984-2.984L87.432,14.648l-.949.949L75.157,4.34a.737.737,0,0,0-1.017,0,.683.683,0,0,0-.068,1.017Zm30.991,32.89L92.178,25.362l.949-.949,11.325,11.325a.825.825,0,0,0,1.085,0,.737.737,0,0,0,0-1.017L94.213,23.4l.949-.949,12.885,12.885ZM90.551,45.028V41.3a.746.746,0,0,0-1.492,0v3.73H83.566l.542-14.241,4.95-4.95a.737.737,0,0,0,0-1.017l-1.492-1.492,2.306-2.306,2.306,2.306L90.687,24.82a.737.737,0,0,0,0,1.017l4.95,4.95.543,14.241ZM71.563,35.263,84.448,22.378l.949.949-7.12,7.188a.737.737,0,0,0,0,1.017.825.825,0,0,0,1.085,0l7.12-7.12.949.949L74.547,38.247ZM93.128,22.311,90.822,20l.543-.543,2.306,2.306ZM89.8,18.988l-.543-.543L89.8,17.9l.543.543ZM88.788,20l-2.306,2.306-.543-.543,2.306-2.306Z" transform="translate(-69.8 0)" fill="#2a2a2a"/>
    </g>
    <g id="Group_3" data-name="Group 3" transform="translate(0 12.246)">
      <path id="Path_5" data-name="Path 5" d="M28.614,44.968l-.339-.543a.7.7,0,1,0-1.221.678l.339.543c.068.2.271.271.407.339a.765.765,0,0,0,.543-.068.686.686,0,0,0,.271-.949Z" transform="translate(-17.872 -26.428)" fill="#2a2a2a"/>
      <path id="Path_6" data-name="Path 6" d="M46.747,51.926l-19.395-33.5a.686.686,0,0,0-.949-.271L13.926,25.411a1,1,0,0,0-.339.407.765.765,0,0,0,.068.543L25.725,47.382a1,1,0,0,0,.407.339.765.765,0,0,0,.543-.068l9.562-5.561.949,1.56a1.507,1.507,0,0,0-.543.882,1.672,1.672,0,0,0,.271,1.288c.61.882,1.085,1.56,1.221,1.831.339.543.678,1.424,1.085,2.238.407.949.814,1.763,1.153,2.373a7.466,7.466,0,0,0,1.017,1.356,2.41,2.41,0,0,0,1.085.746,2.078,2.078,0,0,0,1.56-.2l2.373-1.356a.583.583,0,0,0,.339-.882ZM26.675,46.094l-11.393-19.8,1.017-.61,5.289,9.087c.068.2.271.271.407.339a.765.765,0,0,0,.543-.068.686.686,0,0,0,.271-.949L17.52,25l8.951-5.222,11.393,19.8Zm10.85-4.679,1.017-.61.882,1.56-1.017.61Zm5.9,11.6a.721.721,0,0,1-.814-.136,14.383,14.383,0,0,1-.882-1.221c-.339-.543-.678-1.424-1.085-2.238-.407-.949-.814-1.763-1.153-2.373-.2-.339-.678-1.017-1.356-1.967a.249.249,0,0,1-.068-.2c0-.068,0-.068.136-.136l2.034-1.153,4.95,8.409Z" transform="translate(-13.559 -18.059)" fill="#2a2a2a"/>
      <path id="Path_7" data-name="Path 7" d="M31.991,23.949a1.986,1.986,0,0,0-1.085-.882,1.6,1.6,0,0,0-1.356.2,1.986,1.986,0,0,0-.882,1.085,1.6,1.6,0,0,0,.2,1.356,1.8,1.8,0,0,0,1.085.814,1.6,1.6,0,0,0,1.356-.2,1.684,1.684,0,0,0,.678-2.373Zm-1.356,1.288a.355.355,0,0,1-.543-.136.508.508,0,0,1-.068-.339c0-.136.068-.2.2-.271a.355.355,0,0,1,.543.136.65.65,0,0,1-.136.61Z" transform="translate(-18.4 -19.649)" fill="#2a2a2a"/>
    </g>
  </g>
  <g id="Group_5" data-name="Group 5" transform="translate(22.641 85.436)">
    <path id="Path_8" data-name="Path 8" d="M78.356,131.218c-6.646,0-12.681-.2-17.767-.475a238.338,238.338,0,0,1-26.379-2.78A1,1,0,1,1,34.549,126a260.421,260.421,0,0,0,26.176,2.78,293.069,293.069,0,0,0,60.9-2.78,1,1,0,0,1,.339,1.967A288.875,288.875,0,0,1,78.356,131.218Z" transform="translate(-33.387 -125.987)" fill="#2a2a2a"/>
  </g>
  <g id="Group_6" data-name="Group 6" transform="translate(0 53.708)">
    <path id="Path_9" data-name="Path 9" d="M11.732,89.615c0,2.306-.949,3.8-2.78,4.476l3.662,5.154h-4L5.425,94.633H3.255v4.611H0V84.8H5.493c2.238,0,3.865.407,4.815,1.153A4.378,4.378,0,0,1,11.732,89.615Zm-3.865,1.7a2.157,2.157,0,0,0,.61-1.7,1.914,1.914,0,0,0-.61-1.628A4.213,4.213,0,0,0,5.7,87.58H3.255v4.272H5.629A3.187,3.187,0,0,0,7.866,91.31Z" transform="translate(0 -81.002)" fill="#2a2a2a"/>
    <path id="Path_10" data-name="Path 10" d="M30.307,83a2.263,2.263,0,0,1-.61-1.56,1.964,1.964,0,0,1,.678-1.56,2.208,2.208,0,0,1,1.56-.678,1.964,1.964,0,0,1,1.56.678,2.208,2.208,0,0,1,.678,1.56A1.964,1.964,0,0,1,33.494,83l6.239,14.444H36.274l-1.356-3.119h-6.1l-1.356,3.119H24Zm1.56,4.34-1.831,4.2H33.63Zm-.746-6.646a1.086,1.086,0,1,0,1.492,0,1.161,1.161,0,0,0-1.492,0Z" transform="translate(-7.725 -79.2)" fill="#2a2a2a"/>
    <path id="Path_11" data-name="Path 11" d="M62.319,84.8h3.255V99.312H62.319v-5.7H56.555v5.7H53.3V84.8h3.255v6.035h5.764Z" transform="translate(-17.155 -81.002)" fill="#2a2a2a"/>
    <path id="Path_12" data-name="Path 12" d="M89.674,99.312l-1.356-3.119h-6.1l-1.356,3.119H77.4L83.639,84.8h3.119L93,99.312ZM85.334,89.14l-1.831,4.2H87.1Z" transform="translate(-24.912 -81.002)" fill="#2a2a2a"/>
    <path id="Path_13" data-name="Path 13" d="M116.872,84.8h3.255V99.312h-3.255l-6.917-9.087v9.087H106.7V84.8h3.052l7.12,9.358Z" transform="translate(-34.343 -81.002)" fill="#2a2a2a"/>
    <path id="Path_14" data-name="Path 14" d="M146.354,86.7a6.99,6.99,0,0,1,2.1,5.289,7.1,7.1,0,0,1-2.034,5.357c-1.356,1.288-3.391,1.967-6.171,1.967H135.3V84.8h5.086C143.031,84.8,145,85.41,146.354,86.7Zm-2.374,8.612a4.95,4.95,0,0,0,0-6.51,5.263,5.263,0,0,0-3.662-1.153h-1.831v8.816h2.034A4.72,4.72,0,0,0,143.98,95.311Z" transform="translate(-43.548 -81.002)" fill="#2a2a2a"/>
    <path id="Path_15" data-name="Path 15" d="M172.875,84.8v2.848h-7.188v2.984h6.51v2.78h-6.51V96.4h7.459v2.848H162.5V84.8Z" transform="translate(-52.303 -81.002)" fill="#2a2a2a"/>
    <path id="Path_16" data-name="Path 16" d="M186.1,99.312V84.8h3.255V96.4h6.171v2.848l-9.426.068Z" transform="translate(-59.899 -81.002)" fill="#2a2a2a"/>
  </g>
</svg>
