<svg id="White_Logo" data-name="White Logo" xmlns="http://www.w3.org/2000/svg" width="176.364" height="117.9" viewBox="0 0 176.364 117.9">
  <g id="Group_4" data-name="Group 4" transform="translate(11.956)">
    <g id="Group_1" data-name="Group 1" transform="translate(108.729 11.022)">
      <path id="Path_1" data-name="Path 1" d="M149.775,38.2a6.808,6.808,0,0,0-.176,1.323.935.935,0,1,0,1.852.265,6.807,6.807,0,0,0,.176-1.323v-.353a.748.748,0,0,0-.705-.617.961.961,0,0,0-1.146.705Z" transform="translate(-138.363 -15.452)" fill="#f9f9f9"/>
      <path id="Path_2" data-name="Path 2" d="M152.239,17.967c-.97,1.852-2.116,6.437-3.439,14.109a.9.9,0,1,0,1.764.353c1.587-9.171,2.645-12.434,3.263-13.58a9.07,9.07,0,0,1,5.379-4.321,9.244,9.244,0,0,1,3.086-.353c-.265.176-.441.265-.705.441a17.775,17.775,0,0,0-4.938,5.732c-2.028,3.792-6.79,18.166-9.083,25.22l-.97-.529a.892.892,0,0,0-1.235.353l-8.377,15.344a.892.892,0,0,0,.353,1.235l4.762,2.645a.937.937,0,0,0,.705.088.9.9,0,0,0,.529-.441l8.377-15.344a.937.937,0,0,0,.088-.705.9.9,0,0,0-.441-.529l-.265-.088c7.055-5.908,18.077-15.52,20.017-19.136a10.672,10.672,0,0,0,.882-8.2,10.534,10.534,0,0,0-5.2-6.437,10.672,10.672,0,0,0-8.2-.882,10.1,10.1,0,0,0-6.349,5.026Zm-2.557,30.864L142.1,62.587l-3.175-1.764,7.584-13.756ZM170.316,20.7a8.571,8.571,0,0,1-.794,6.878c-1.146,2.116-6.79,7.584-15.432,14.991,4.938-6,11.111-13.756,12.61-16.578a17.4,17.4,0,0,0,2.2-7.231v-.882a7.724,7.724,0,0,1,1.411,2.822Zm-5.2-5.555L153.914,35.6a.908.908,0,1,0,1.587.882l11.2-20.458a5.784,5.784,0,0,1,.529,2.734A15.1,15.1,0,0,1,165.2,25.2c-1.852,3.439-10.935,14.55-15.7,20.37,2.381-7.231,6.878-20.723,8.73-24.162a16.2,16.2,0,0,1,4.321-5.2,4.654,4.654,0,0,1,2.557-1.058Z" transform="translate(-136.859 -12.499)" fill="#f9f9f9"/>
    </g>
    <g id="Group_2" data-name="Group 2" transform="translate(49.595)">
      <path id="Path_3" data-name="Path 3" d="M78.8,48.056l-2.734,2.734a.959.959,0,0,0,0,1.323,1.073,1.073,0,0,0,1.411,0l2.734-2.734a.959.959,0,0,0,0-1.323.918.918,0,0,0-1.411,0Z" transform="translate(-70.509 -5.64)" fill="#f9f9f9"/>
      <path id="Path_4" data-name="Path 4" d="M103.4,27.072a1,1,0,0,0-.705-.265.945.945,0,0,0-.529.176l-3-3,.97-.97,1.94,1.94a1.073,1.073,0,0,0,1.411,0L121.651,6.79a.959.959,0,0,0,0-1.323l-5.2-5.2a1.073,1.073,0,0,0-1.411,0L96.872,18.43a.959.959,0,0,0,0,1.323l1.94,1.94-.97.97L96.519,21.34a1.073,1.073,0,0,0-1.411,0l-1.323,1.323-.97-.97,1.94-1.94a.959.959,0,0,0,0-1.323L76.678.265a1.073,1.073,0,0,0-1.411,0l-5.2,5.2a.959.959,0,0,0,0,1.323L88.23,24.956a1.073,1.073,0,0,0,1.411,0l1.94-1.94.97.97-3,3a1.253,1.253,0,0,0-.529-.176,1,1,0,0,0-.705.265L70.065,45.237a.959.959,0,0,0,0,1.323l5.2,5.2a1.073,1.073,0,0,0,1.411,0l9.7-9.7-.617,16.49h-2.91a.97.97,0,1,0,0,1.94h25.926a.97.97,0,1,0,0-1.94h-2.91l-.617-16.49,9.7,9.7a1.073,1.073,0,0,0,1.411,0l5.2-5.2a.959.959,0,0,0,0-1.323ZM116.272,5.644a.959.959,0,0,0-1.323,0L100.223,20.37l-1.235-1.235L115.743,2.381l3.88,3.88L102.868,23.016l-1.235-1.235L116.36,7.055a1.188,1.188,0,0,0-.088-1.411ZM75.355,6.966,90.082,21.693l-1.235,1.235L72.093,6.173l3.88-3.88L92.727,19.047l-1.235,1.235L76.766,5.644a.959.959,0,0,0-1.323,0,.888.888,0,0,0-.088,1.323Zm40.3,42.768L98.9,32.98l1.235-1.235,14.726,14.726a1.073,1.073,0,0,0,1.411,0,.959.959,0,0,0,0-1.323L101.546,30.423l1.235-1.235,16.755,16.755ZM96.784,58.553V53.7a.97.97,0,0,0-1.94,0v4.85H87.7l.705-18.518L94.844,33.6a.959.959,0,0,0,0-1.323l-1.94-1.94,3-3,3,3-1.94,1.94a.959.959,0,0,0,0,1.323l6.437,6.437.705,18.518Zm-24.691-12.7L88.847,29.1l1.235,1.235-9.259,9.347a.959.959,0,0,0,0,1.323,1.073,1.073,0,0,0,1.411,0l9.259-9.259,1.235,1.235L75.973,49.735Zm28.042-16.843-3-3,.705-.705,3,3Zm-4.321-4.321-.705-.705.705-.705.705.705Zm-1.323,1.323-3,3-.705-.705,3-3Z" transform="translate(-69.8)" fill="#f9f9f9"/>
    </g>
    <g id="Group_3" data-name="Group 3" transform="translate(0 15.925)">
      <path id="Path_5" data-name="Path 5" d="M29.112,45.242l-.441-.705a.908.908,0,1,0-1.587.882l.441.705c.088.265.353.353.529.441a1,1,0,0,0,.705-.088.892.892,0,0,0,.353-1.235Z" transform="translate(-15.142 -21.132)" fill="#f9f9f9"/>
      <path id="Path_6" data-name="Path 6" d="M56.716,62.1,31.5,18.536a.892.892,0,0,0-1.235-.353L14.036,27.619a1.3,1.3,0,0,0-.441.529,1,1,0,0,0,.088.705L29.38,56.19a1.3,1.3,0,0,0,.529.441,1,1,0,0,0,.705-.088l12.434-7.231,1.235,2.028a1.96,1.96,0,0,0-.705,1.146,2.174,2.174,0,0,0,.353,1.675c.794,1.146,1.411,2.028,1.587,2.381.441.705.882,1.852,1.411,2.91.529,1.235,1.058,2.293,1.5,3.086A9.709,9.709,0,0,0,49.75,64.3a3.134,3.134,0,0,0,1.411.97,2.7,2.7,0,0,0,2.028-.265l3.086-1.764a.758.758,0,0,0,.441-1.146Zm-26.1-7.584L15.8,28.765l1.323-.794L24,39.788c.088.265.353.353.529.441a1,1,0,0,0,.705-.088.892.892,0,0,0,.353-1.235L18.71,27.09,30.35,20.3,45.164,46.049ZM44.723,48.43l1.323-.794,1.146,2.028-1.323.794ZM52.4,63.509a.938.938,0,0,1-1.058-.176,18.7,18.7,0,0,1-1.146-1.587c-.441-.705-.882-1.852-1.411-2.91-.529-1.235-1.058-2.293-1.5-3.086-.265-.441-.882-1.323-1.764-2.557a.324.324,0,0,1-.088-.265c0-.088,0-.088.176-.176l2.645-1.5,6.437,10.935Z" transform="translate(-13.559 -18.059)" fill="#f9f9f9"/>
      <path id="Path_7" data-name="Path 7" d="M33.009,24.235A2.583,2.583,0,0,0,31.6,23.088a2.077,2.077,0,0,0-1.764.265,2.583,2.583,0,0,0-1.146,1.411,2.077,2.077,0,0,0,.265,1.764,2.341,2.341,0,0,0,1.411,1.058,2.077,2.077,0,0,0,1.764-.265,2.19,2.19,0,0,0,.882-3.086ZM31.245,25.91a.462.462,0,0,1-.705-.176.661.661,0,0,1-.088-.441c0-.176.088-.265.265-.353a.462.462,0,0,1,.705.176.846.846,0,0,1-.176.794Z" transform="translate(-15.336 -18.643)" fill="#f9f9f9"/>
    </g>
  </g>
  <g id="Group_5" data-name="Group 5" transform="translate(29.442 111.098)">
    <path id="Path_8" data-name="Path 8" d="M91.863,132.789c-8.642,0-16.49-.265-23.1-.617a309.925,309.925,0,0,1-34.3-3.615A1.3,1.3,0,1,1,34.9,126a338.644,338.644,0,0,0,34.038,3.615C87.9,130.672,117,130.937,148.123,126a1.3,1.3,0,0,1,.441,2.557A375.643,375.643,0,0,1,91.863,132.789Z" transform="translate(-33.387 -125.987)" fill="#f9f9f9"/>
  </g>
  <g id="Group_6" data-name="Group 6" transform="translate(0 69.84)">
    <path id="Path_9" data-name="Path 9" d="M15.256,91.061c0,3-1.235,4.938-3.615,5.82l4.762,6.7H11.2l-4.145-6H4.233v6H0V84.8H7.143c2.91,0,5.026.529,6.261,1.5S15.256,88.856,15.256,91.061Zm-5.026,2.2a2.8,2.8,0,0,0,.794-2.2,2.489,2.489,0,0,0-.794-2.116,5.478,5.478,0,0,0-2.822-.529H4.233v5.555H7.319C8.73,93.971,9.7,93.795,10.229,93.265Z" transform="translate(0 -79.862)" fill="#f9f9f9"/>
    <path id="Path_10" data-name="Path 10" d="M32.2,84.138a2.943,2.943,0,0,1-.794-2.028,2.554,2.554,0,0,1,.882-2.028,2.871,2.871,0,0,1,2.028-.882,2.554,2.554,0,0,1,2.028.882,2.871,2.871,0,0,1,.882,2.028,2.554,2.554,0,0,1-.882,2.028l8.113,18.783h-4.5L38.2,98.865H30.261L28.5,102.921H24Zm2.028,5.644-2.381,5.467h4.674Zm-.97-8.642a1.412,1.412,0,1,0,1.94,0,1.51,1.51,0,0,0-1.94,0Z" transform="translate(-2.836 -79.2)" fill="#f9f9f9"/>
    <path id="Path_11" data-name="Path 11" d="M65.028,84.8h4.233v18.871H65.028V96.264h-7.5v7.407H53.3V84.8h4.233v7.848h7.5Z" transform="translate(-6.299 -79.862)" fill="#f9f9f9"/>
    <path id="Path_12" data-name="Path 12" d="M93.361,103.671,91.6,99.615H83.661L81.9,103.671H77.4L85.513,84.8h4.056l8.113,18.871ZM87.717,90.444l-2.381,5.467H90.01Z" transform="translate(-9.147 -79.862)" fill="#f9f9f9"/>
    <path id="Path_13" data-name="Path 13" d="M119.927,84.8h4.233v18.871h-4.233l-8.995-11.816v11.816H106.7V84.8h3.968l9.259,12.169Z" transform="translate(-12.61 -79.862)" fill="#f9f9f9"/>
    <path id="Path_14" data-name="Path 14" d="M149.674,87.269a9.09,9.09,0,0,1,2.734,6.878,9.237,9.237,0,0,1-2.645,6.966c-1.764,1.675-4.409,2.557-8.025,2.557H135.3V84.8h6.614C145.353,84.8,147.91,85.594,149.674,87.269Zm-3.086,11.2a6.437,6.437,0,0,0,0-8.465,6.844,6.844,0,0,0-4.762-1.5h-2.381V99.967h2.645A6.138,6.138,0,0,0,146.587,98.468Z" transform="translate(-15.99 -79.862)" fill="#f9f9f9"/>
    <path id="Path_15" data-name="Path 15" d="M175.992,84.8v3.7h-9.347v3.88h8.465V96h-8.465v3.88h9.7v3.7H162.5V84.8Z" transform="translate(-19.204 -79.862)" fill="#f9f9f9"/>
    <path id="Path_16" data-name="Path 16" d="M186.1,103.671V84.8h4.233V99.879h8.025v3.7l-12.257.088Z" transform="translate(-21.993 -79.862)" fill="#f9f9f9"/>
  </g>
</svg>
